<svg xmlns="http://www.w3.org/2000/svg" xmlns:xlink="http://www.w3.org/1999/xlink" width="281.3464968152866" height="24.269999999999982" viewBox="0 0 281.3464968152866 24.269999999999982" fill="none"><defs><rect id="path_0" x="0" y="0" width="38.646496815286625" height="24.27" /><rect id="path_1" x="0" y="0" width="38.646496815286625" height="24.27" /><rect id="path_2" x="0" y="0" width="38.646496815286625" height="24.27" /><rect id="path_3" x="0" y="0" width="38.646496815286625" height="24.27" /><linearGradient id="linear_0" x1="0%" y1="50%" x2="100%" y2="50%" gradientUnits="objectBoundingBox"><stop offset="0" stop-color="#007B40" stop-opacity="1" /><stop offset="1" stop-color="#55B330" stop-opacity="1" /></linearGradient><linearGradient id="linear_1" x1="0%" y1="50%" x2="100%" y2="50%" gradientUnits="objectBoundingBox"><stop offset="0" stop-color="#007B40" stop-opacity="1" /><stop offset="1" stop-color="#55B330" stop-opacity="1" /></linearGradient><linearGradient id="linear_2" x1="0%" y1="50%" x2="100%" y2="50%" gradientUnits="objectBoundingBox"><stop offset="0" stop-color="#007B40" stop-opacity="1" /><stop offset="1" stop-color="#55B330" stop-opacity="1" /></linearGradient><linearGradient id="linear_3" x1="0%" y1="50%" x2="100%" y2="50%" gradientUnits="objectBoundingBox"><stop offset="0" stop-color="#1D2970" stop-opacity="1" /><stop offset="1" stop-color="#006DBA" stop-opacity="1" /></linearGradient><linearGradient id="linear_4" x1="0%" y1="50%" x2="100%" y2="50%" gradientUnits="objectBoundingBox"><stop offset="0" stop-color="#6E2B2F" stop-opacity="1" /><stop offset="1" stop-color="#E30138" stop-opacity="1" /></linearGradient><rect id="path_4" x="0" y="0" width="38.646496815286625" height="24.27" /><rect id="path_5" x="0" y="0" width="38.646496815286625" height="24.27" /></defs><g opacity="1" transform="translate(0 0)  rotate(0 140.6732484076433 12.135)"><g opacity="1" transform="translate(97.08 0)  rotate(0 19.323248407643312 12.135)"><mask id="bg-mask-0" fill="white"><use xlink:href="#path_0"></use></mask><g mask="url(#bg-mask-0)" ><g opacity="1" transform="translate(0.051391618105434335 0)  rotate(0 19.27185678953788 12.135)"><path id="路径 1"  style="fill:#2557D6" transform="translate(0 0)  rotate(0 19.27185678953788 12.135)" opacity="1" d="M2 24.27L36.54 24.27C37.64 24.27 38.54 23.37 38.54 22.27L38.54 2C38.54 0.9 37.64 0 36.54 0L2 0C0.9 0 0 0.9 0 2L0 22.27C0 23.37 0.9 24.27 2 24.27Z " /><path id="分组 2" fill-rule="evenodd" style="fill:#FFFFFF" transform="translate(0 5.101337579617835)  rotate(0 19.27185678953788 7.033662420382166)" opacity="1" d="M9.46 6.29L9.82 5.51L9.82 6.29L18.86 6.29L18.86 4.64L19.01 4.64C19.17 4.64 19.17 4.64 19.17 4.84L19.17 6.29L23.85 6.29L23.85 5.93C24.26 6.13 24.82 6.29 25.59 6.29L27.6 6.29L28.01 5.31L28.93 5.31L29.34 6.29L33.15 6.29L33.15 5.36L33.71 6.29L36.75 6.29L36.75 0L33.76 0L33.76 0.72L33.3 0L30.22 0L30.22 0.72L29.86 0L25.7 0C24.98 0 24.36 0.1 23.85 0.36L23.85 0L20.97 0L20.97 0.36C20.66 0.05 20.25 0 19.79 0L9.25 0L8.53 1.6L7.81 0L4.52 0L4.52 0.72L4.16 0L1.34 0L0 2.99L0 6.29L1.85 6.29L2.26 5.31L3.19 5.31L3.6 6.29L7.25 6.29L7.25 5.51L7.61 6.29L9.46 6.29Z M8.07 5.40599L8.99 5.40599L10.59 1.85599L10.59 5.40599L11.67 5.40599L11.67 0.875987L9.87 0.875987L8.58 3.91599L7.14 0.875987L5.4 0.875987L5.4 5.15599L3.55 0.875987L1.95 0.875987L0 5.40599L1.18 5.40599L1.59 4.37599L3.85 4.37599L4.27 5.40599L6.48 5.40599L6.48 1.85599L8.07 5.40599Z M2.72427 1.64892L2.00427 3.44892L3.49427 3.44892L2.72427 1.64892Z M16.0382 3.55599L16.0382 2.62599L13.5682 2.62599L13.5682 1.80599L16.0882 1.80599L16.0882 0.875987L12.4882 0.875987L12.4882 5.40599L16.0882 5.40599L16.0882 4.43599L13.5682 4.43599L13.5682 3.55599L16.0382 3.55599Z M19.8865 3.91599C20.0965 4.17599 20.0465 4.53599 20.0465 4.79599L20.0465 5.40599L21.1765 5.40599L21.1765 4.48599C21.1765 4.06599 21.1265 3.91599 20.9665 3.65599C20.8665 3.55599 20.6565 3.34599 20.4565 3.29599C20.7065 3.19599 21.2265 2.78599 21.2265 2.06599C21.2265 1.59599 21.0165 1.28599 20.6565 1.08599C20.2965 0.875987 19.8865 0.875987 19.3265 0.875987L16.8565 0.875987L16.8565 5.40599L17.9365 5.40599L17.9365 3.76599L19.1165 3.76599C19.4765 3.76599 19.7365 3.76599 19.8865 3.91599Z M20.0471 2.31503C20.0471 2.11503 19.9871 2.00503 19.8371 1.90503L19.3271 1.85503L17.9871 1.85503L17.9871 2.83503L19.3271 2.83503C19.5271 2.83503 19.6871 2.83503 19.8371 2.73503C19.9871 2.67503 20.0471 2.52503 20.0471 2.31503Z M22.9214 0.875987L21.8414 0.875987L21.8414 5.40599L22.9214 5.40599L22.9214 0.875987Z M31.096 0.875987L31.096 5.15599L29.296 0.875987L27.646 0.875987L26.106 4.43599L25.646 4.43599C25.336 4.43599 25.076 4.37599 24.876 4.17599C24.666 3.96599 24.616 3.60599 24.616 3.14599C24.616 2.62599 24.716 2.26599 24.926 2.11599C25.126 1.90599 25.336 1.80599 25.746 1.80599L26.776 1.80599L26.776 0.875987L25.696 0.875987C24.976 0.875987 24.416 1.02599 24.056 1.39599C23.586 1.85599 23.486 2.47599 23.486 3.14599C23.486 3.96599 23.696 4.48599 24.056 4.89599C24.466 5.25599 25.126 5.40599 25.646 5.40599L26.876 5.40599L27.286 4.37599L29.546 4.37599L29.966 5.40599L32.176 5.40599L32.176 2.00599L34.226 5.40599L35.766 5.40599L35.766 0.875987L34.686 0.875987L34.686 4.01599L32.786 0.875987L31.096 0.875987Z M28.4201 1.64892L27.7001 3.44892L29.1901 3.44892L28.4201 1.64892Z M35.2074 7.78083L32.2274 7.78083C31.7574 7.78083 31.1974 7.88083 30.9374 8.14083L30.9374 7.78083L25.6474 7.78083L25.6474 8.14083C25.1774 7.83083 24.5174 7.78083 24.1574 7.78083L20.6574 7.78083L20.6574 8.14083C20.3474 7.83083 19.5774 7.78083 19.1174 7.78083L15.2074 7.78083L14.3374 8.71083L13.5174 7.78083L7.65735 7.78083L7.65735 14.0708L13.4174 14.0708L14.2874 13.0908L15.1574 14.0708L18.7074 14.0708L18.7074 12.5708L19.0674 12.5708C19.5274 12.6208 20.0974 12.5708 20.5574 12.3708L20.5574 14.0708L23.4874 14.0708L23.4874 12.4208L23.6374 12.4208C23.7973 12.4208 23.7973 12.4208 23.7973 12.6208L23.7973 14.0708L32.6874 14.0708C33.2474 14.0708 33.8174 13.9108 34.1273 13.6508L34.1273 14.0708L36.9474 14.0708C37.5174 14.0708 38.1374 14.0108 38.5474 13.8108L38.5474 12.6208C38.2873 12.9808 37.7774 13.1908 37.0574 13.1908L34.9974 13.1908L34.9974 12.2108L37.0574 12.2108C37.2574 12.2108 37.4174 12.2108 37.5174 12.1108L37.6174 11.8008L37.5174 11.4908L37.1074 11.4408C36.0774 11.3908 34.8474 11.4408 34.8474 10.0008C34.8474 9.38083 35.2574 8.66083 36.3874 8.66083L38.5474 8.66083L38.5474 7.78083L36.5373 7.78083C35.9274 7.78083 35.5074 7.88083 35.2074 8.14083L35.2074 7.78083Z M14.3338 10.1483L13.0038 8.70834L8.63379 8.70834L8.63379 13.2383L12.9538 13.2383L14.2838 11.6983L15.6238 13.2383L17.7338 13.2383L17.7338 11.6983L19.1138 11.6983C20.0438 11.6983 20.9638 11.4383 20.9638 10.1983C20.9638 8.91834 20.0438 8.70834 19.1738 8.70834L15.7238 8.70834L14.3338 10.1483Z M12.073 11.3859L9.71302 11.3859L9.71302 12.2659L12.383 12.2659L13.623 10.9259L12.433 9.63586L9.71302 9.63586L9.71302 10.4559L12.073 10.4559L12.073 11.3859Z M16.6464 9.1721L15.0064 10.9221L16.6464 12.7821L16.6464 9.1721Z M19.7901 10.1559C19.7901 9.78586 19.5301 9.63586 19.1201 9.63586L17.7301 9.63586L17.7301 10.7659L19.1201 10.7659C19.5301 10.7659 19.7901 10.5659 19.7901 10.1559Z M30.0167 11.3883L30.0167 10.4583L27.5467 10.4583L27.5467 9.63834L30.0667 9.63834L30.0667 8.70834L26.4667 8.70834L26.4667 13.2383L30.0667 13.2383L30.0667 12.2683L27.5467 12.2683L27.5467 11.3883L30.0167 11.3883Z M24.5117 11.7483C24.7217 11.9583 24.7217 12.3683 24.7217 12.6783L24.7217 13.2383L25.8017 13.2383L25.8017 12.3183C25.8017 11.8983 25.7517 11.6983 25.5917 11.4883C25.4917 11.3883 25.3317 11.1783 25.0817 11.1283C25.3317 11.0283 25.8517 10.6183 25.8517 9.89834C25.8517 9.37834 25.6417 9.11834 25.2817 8.91834C24.9217 8.70834 24.5117 8.70834 24.0017 8.70834L21.4817 8.70834L21.4817 13.2383L22.5617 13.2383L22.5617 11.5383L23.7417 11.5383C24.1017 11.5383 24.3617 11.5983 24.5117 11.7483Z M24.6723 10.0959C24.6723 9.89586 24.6123 9.78586 24.4623 9.68586L23.9523 9.63586L22.6123 9.63586L22.6123 10.6159L23.9523 10.6159L24.4623 10.5659C24.6123 10.4559 24.6723 10.3059 24.6723 10.0959Z M32.4294 10.4583L32.0194 10.4083C31.8594 10.3583 31.7594 10.2583 31.7594 10.0483C31.7594 9.89834 31.8094 9.78834 31.9094 9.73834L32.3794 9.63834L34.3294 9.63834L34.3294 8.70834L32.1694 8.70834C31.0394 8.70834 30.6294 9.37834 30.6294 10.0483C30.6294 11.4883 31.9094 11.3883 32.8894 11.4383L33.2994 11.5383L33.4094 11.8483L33.2994 12.1583L32.8394 12.2683L30.7294 12.2683L30.7294 13.2383L32.8894 13.2383C33.9694 13.2383 34.5894 12.7783 34.5894 11.7983C34.5894 11.3383 34.4294 11.0283 34.2294 10.8183C34.0194 10.5683 33.6094 10.4583 32.9894 10.4583L32.4294 10.4583Z M36.2341 10.3559L36.6441 10.4059L37.2041 10.4059C37.8241 10.4559 38.1841 10.5659 38.4441 10.7659L38.5441 10.9259L38.5441 9.63586L36.5941 9.63586L36.1241 9.68586C36.0241 9.78586 35.9741 9.89586 35.9741 10.0459C35.9741 10.2059 36.0741 10.3059 36.2341 10.3559Z " /></g></g></g><g opacity="1" transform="translate(194.16 0)  rotate(0 19.323248407643312 12.135)"><mask id="bg-mask-1" fill="white"><use xlink:href="#path_1"></use></mask><g mask="url(#bg-mask-1)" ><g opacity="1" transform="translate(0 0)  rotate(0 19.323248407643312 12.135)"><path id="路径 1"  style="fill:#0079BE" transform="translate(0 0)  rotate(0 19.323248407643312 12.135)" opacity="1" d="M2 24.27L36.65 24.27C37.75 24.27 38.65 23.37 38.65 22.27L38.65 2C38.65 0.9 37.75 0 36.65 0L2 0C0.9 0 0 0.9 0 2L0 22.27C0 23.37 0.9 24.27 2 24.27Z " /><path id="路径 2"  style="fill:#FFFFFF" transform="translate(7.888359503168963 3.5811510019567088)  rotate(0 11.127954006377301 8.605377660463674)" opacity="1" d="M13.29 0.03L9.27 0.03C6.05 -0.22 2.95 1.35 1.27 4.11C-0.42 6.87 -0.42 10.34 1.27 13.1C2.95 15.86 6.05 17.43 9.27 17.18L13.29 17.18C17.98 17.24 22.26 13.37 22.26 8.68C22.26 3.58 17.98 0.03 13.29 0.03Z " /><path id="路径 3"  style="fill:#0079BE" transform="translate(9.32664561081418 4.328365219848418)  rotate(0 7.85816330638327 7.858163442571964)" opacity="1" d="M1.04 3.95C-0.36 6.39 -0.35 9.38 1.07 11.81C2.48 14.24 5.08 15.73 7.88 15.72C10.69 15.71 13.28 14.2 14.68 11.76C16.07 9.33 16.06 6.33 14.65 3.91C13.24 1.48 10.64 -0.01 7.83 0C5.02 0.01 2.44 1.52 1.04 3.95Z " /><g opacity="1" transform="translate(12.212292993630575 7.523184713375795)  rotate(0 4.942111306704677 4.637579617834395)"><path id="路径 4"  style="fill:#FFFFFF" transform="translate(0 0)  rotate(0 1.597388535031847 4.637579617834395)" opacity="1" d="M3.19 9.28L3.19 0C1.34 0.72 0 2.52 0 4.64C0.01 6.69 1.28 8.53 3.19 9.28Z " /><path id="路径 5"  style="fill:#FFFFFF" transform="translate(6.750254777070064 0)  rotate(0 1.566983918169646 4.637579617834395)" opacity="1" d="M3.13 4.64C3.13 2.6 1.89 0.76 0 0L0 9.28C1.89 8.51 3.13 6.68 3.13 4.64Z " /></g></g></g></g><g opacity="1" transform="translate(145.62 0)  rotate(0 19.323248407643312 12.135)"><mask id="bg-mask-2" fill="white"><use xlink:href="#path_2"></use></mask><g mask="url(#bg-mask-2)" ><g opacity="1" transform="translate(0 0)  rotate(0 19.323248407643312 12.135)"><path id="路径 1"  style="fill:#4D4D4D" transform="translate(0 0)  rotate(0 19.323248407643312 12.135)" opacity="1" d="M0 2.66L0 21.61C0 23.06 1.24 24.27 2.73 24.27L35.92 24.27C37.41 24.27 38.65 23.06 38.65 21.61L38.65 2.66C38.65 1.21 37.41 0 35.92 0L2.73 0C1.24 0 0 1.21 0 2.66Z " /><path id="分组 2" fill-rule="evenodd" style="fill:#FFFFFF" transform="translate(3.3196349828515435 7.79934131736527)  rotate(0 16.27612077413033 2.5674850299401197)" opacity="1" d="M14.4677 2.57C14.4677 3.97 15.7077 5.13 17.2377 5.13C18.7777 5.13 20.0177 3.97 20.0177 2.57C20.0177 1.16 18.7777 0 17.2377 0C15.7077 0 14.4677 1.16 14.4677 2.57Z M14.1175 3.67844C13.7275 4.06844 13.3775 4.21844 12.9275 4.21844C11.8875 4.21844 11.1475 3.53844 11.1475 2.56844C11.1475 1.64844 11.8875 0.918443 12.8775 0.918443C13.3275 0.918443 13.7275 1.06844 14.1175 1.44844L14.1175 0.338443C13.6775 0.148443 13.3275 0.0484431 12.8775 0.0484431C11.3475 0.0484431 10.1075 1.15844 10.1075 2.56844C10.1075 3.96844 11.2975 5.08844 12.8775 5.08844C13.3275 5.08844 13.6775 4.98844 14.1175 4.79844L14.1175 3.67844Z M6.83335 3.58689L6.19335 4.16689C6.64335 4.79689 7.23335 5.08689 7.97335 5.08689C9.06335 5.08689 9.81335 4.40689 9.81335 3.48689C9.81335 2.71689 9.46335 2.37689 8.27335 1.98689C7.68335 1.79689 7.48335 1.64689 7.48335 1.40689C7.48335 1.06689 7.83335 0.876886 8.27335 0.876886C8.57335 0.876886 8.82335 0.966886 9.06335 1.25689L9.61335 0.626886C9.16335 0.246886 8.67335 0.0968862 8.07335 0.0968862C7.13335 0.0968862 6.44335 0.676886 6.44335 1.45689C6.44335 2.12689 6.78335 2.46689 7.73335 2.75689L8.42335 3.05689C8.62335 3.14689 8.72335 3.34689 8.72335 3.53689C8.72335 3.92689 8.42335 4.21689 7.97335 4.21689C7.48335 4.21689 7.08335 3.97689 6.83335 3.58689Z M21.8996 5.08533L22.4896 5.08533L24.7196 0.145329L23.6296 0.145329L22.1996 3.39533L20.8096 0.145329L19.7196 0.145329L21.8996 5.08533Z M0 4.98533L1.49 4.98533C2.28 4.98533 2.87 4.79533 3.37 4.40533C3.96 3.97533 4.31 3.29533 4.31 2.56533C4.31 1.16533 3.17 0.145329 1.54 0.145329L0 0.145329L0 4.98533Z M4.80604 4.98533L5.79604 4.98533L5.79604 0.145329L4.80604 0.145329L4.80604 4.98533Z M26.2098 2.85533L27.9898 2.85533L27.9898 2.03533L26.2098 2.03533L26.2098 0.965329L28.0898 0.965329L28.0898 0.145329L25.1698 0.145329L25.1698 4.98533L28.0898 4.98533L28.0898 4.16533L26.2098 4.16533L26.2098 2.85533Z M28.7371 0.145329L28.7371 4.98533L29.7771 4.98533L29.7771 3.05533L29.8771 3.05533L31.3171 4.98533L32.5571 4.98533L30.9171 2.95533C31.6571 2.80533 32.1071 2.32533 32.1071 1.59533C32.1071 0.675329 31.4171 0.145329 30.2771 0.145329L28.7371 0.145329Z M29.7776 2.37042L30.0776 2.37042C30.7176 2.37042 31.0676 2.13042 31.0676 1.65042C31.0676 1.16042 30.7176 0.920419 30.0776 0.920419L29.7776 0.920419L29.7776 2.37042Z M1.04048 4.16886L1.29048 4.16886C1.98048 4.16886 2.38048 4.01886 2.72048 3.77886C3.07048 3.46886 3.27048 3.02886 3.27048 2.56886C3.27048 2.10886 3.07048 1.66886 2.72048 1.35886C2.38048 1.06886 1.98048 0.968862 1.29048 0.968862L1.04048 0.968862L1.04048 4.16886Z " /><path id="路径 12"  style="fill:#F47216" transform="translate(10.949840764331212 13.951616766467065)  rotate(0 13.848328025477706 5.159191616766467)" opacity="1" d="M0 10.32L24.97 10.32C26.46 10.32 27.7 9.11 27.7 7.65L27.7 0C26.41 0.92 16.75 7.27 0 10.32Z " /></g></g></g><g opacity="1" transform="translate(242.7 0)  rotate(0 19.323248407643312 12.135)"><mask id="bg-mask-3" fill="white"><use xlink:href="#path_3"></use></mask><g mask="url(#bg-mask-3)" ><g opacity="1" transform="translate(0 0)  rotate(0 19.323248407643312 12.135)"><path id="路径 1"  style="fill:#0E4C96" transform="translate(0 0)  rotate(0 19.323248407643312 12.135)" opacity="1" d="M2 24.27L36.65 24.27C37.75 24.27 38.65 23.37 38.65 22.27L38.65 2C38.65 0.9 37.75 0 36.65 0L2 0C0.9 0 0 0.9 0 2L0 22.27C0 23.37 0.9 24.27 2 24.27Z " /><path id="路径 2"  style="fill:#FFFFFF" transform="translate(6.853312101910828 2.524904458598726)  rotate(0 12.469936305732483 9.610095541401273)" opacity="1" d="M24.94 0L3.86 0C1.7 0 0 1.75 0 3.86L0 19.22L21.08 19.22C23.24 19.22 24.94 17.47 24.94 15.36L24.94 0Z " /><g opacity="1" transform="translate(23.600127388535032 3.81312101910828)  rotate(0 3.400891719745223 8.32187898089172)"><path id="路径 3"  fill="url(#linear_0)" transform="translate(1.3397452229299365 8.656815286624203)  rotate(0 1.1805880956084809 0.7342834394904458)" opacity="1" d="M0 1.44L0.82 1.44C1.19 1.44 1.65 1.55 2.01 1.34C2.58 1.03 2.42 0.15 1.8 0L0 0L0 1.44Z " /><path id="路径 4"  fill="url(#linear_1)" transform="translate(1.3397452229299365 6.492611464968153)  rotate(0 1.089380050548629 0.6720563586656222)" opacity="1" d="M1.65 0L0 0L0 1.34L1.39 1.34C1.8 1.39 2.27 0.98 2.16 0.52C2.11 0.26 1.91 0.05 1.65 0Z " /><path id="路径 5"  fill="url(#linear_2)" transform="translate(0 0)  rotate(0 3.400891719745223 8.32187898089172)" opacity="1" d="M6.8 14.02L6.8 0L2.73 0C1.39 0 0.1 1.13 0 2.47L0 5.67L4.07 5.67C4.74 5.67 5.51 5.93 5.67 6.65C5.87 7.37 5.36 8.04 4.69 8.19C4.43 8.19 4.43 8.3 4.69 8.3C5.41 8.4 6.13 8.91 6.03 9.69C6.03 10.46 5.26 10.92 4.53 10.98L0 10.98L0 16.64L4.17 16.64C5.57 16.59 6.8 15.41 6.8 14.02Z " /></g><path id="路径 6"  fill="url(#linear_3)" transform="translate(8.193057324840764 3.81312101910828)  rotate(0 3.426656050955414 8.32187898089172)" opacity="1" d="M6.29 7.42C6.29 8.14 6.39 8.91 6.18 9.64C5.93 10.51 5 10.92 4.17 11.03C2.78 11.23 1.39 11.13 0.05 10.82L0.05 16.64L4.23 16.64C5.57 16.59 6.8 15.41 6.85 14.07L6.85 0L2.73 0C1.34 0 0.05 1.24 0.05 2.63L0 9.64C0 9.64 1.65 10.25 2.47 10.25C3.14 10.25 3.81 9.84 3.92 9.12L3.92 5.67L6.29 5.67L6.29 7.42Z " /><path id="路径 7"  fill="url(#linear_4)" transform="translate(15.88870531652151 3.811431083925849)  rotate(0 3.417717405433513 8.322723948482937)" opacity="1" d="M2.87 10.15C3.95 10.41 5.08 10.1 6.06 9.64L6.06 10.82C5.24 11.03 4.31 11.13 3.43 11.13C2.25 11.13 0.96 11.03 0.03 10.26L0.03 16.65L4.21 16.65C5.55 16.59 6.78 15.41 6.84 14.07L6.84 0L2.82 0C1.42 -0.05 0.14 1.08 0.03 2.48L0.03 5.77C0.03 5.93 -0.07 6.39 0.09 6.34C0.45 6.08 0.86 5.88 1.32 5.72C2.87 5.36 4.52 5.46 6.06 5.82L6.06 6.75C6.17 7.11 5.96 6.96 5.75 6.86C4.83 6.44 3.74 6.24 2.76 6.55C1.99 6.8 1.48 7.63 1.58 8.45C1.58 9.23 2.15 9.95 2.87 10.15Z " /></g></g></g><g opacity="1" transform="translate(0 0)  rotate(0 19.323248407643312 12.135)"><mask id="bg-mask-4" fill="white"><use xlink:href="#path_4"></use></mask><g mask="url(#bg-mask-4)" ><g opacity="1" transform="translate(0 0)  rotate(0 19.323248407643312 12.135)"><path id="路径 1"  style="fill:#0E4595" transform="translate(0 0)  rotate(0 19.323248407643312 12.135)" opacity="1" d="M2 24.27L36.65 24.27C37.75 24.27 38.65 23.37 38.65 22.27L38.65 2C38.65 0.9 37.75 0 36.65 0L2 0C0.9 0 0 0.9 0 2L0 22.27C0 23.37 0.9 24.27 2 24.27Z " /><path id="分组 2" fill-rule="evenodd" style="fill:#FFFFFF" transform="translate(5.204394904458598 6.90484076433121)  rotate(0 15.561656050955413 5.23015923566879)" opacity="1" d="M11.9006 10.3061L13.6006 0.206115L10.8706 0.206115L9.12057 10.3061L11.9006 10.3061Z M19.322 0C16.642 0 14.742 1.39 14.682 3.35C14.682 4.79 16.072 5.62 17.112 6.08C18.192 6.6 18.552 6.9 18.552 7.37C18.552 8.04 17.672 8.35 16.902 8.35C15.772 8.35 15.202 8.19 14.322 7.78L13.962 7.63L13.552 9.89C14.222 10.2 15.412 10.41 16.642 10.46C19.532 10.46 21.382 9.07 21.432 7.01C21.432 5.82 20.712 4.95 19.122 4.23C18.142 3.76 17.572 3.45 17.572 2.99C17.572 2.58 18.032 2.11 19.122 2.11C20.042 2.11 20.662 2.32 21.182 2.52L21.432 2.63L21.792 0.46C21.282 0.26 20.402 0 19.322 0Z M28.5498 10.3061L31.1198 10.3061L28.9098 0.206115L26.7398 0.206115C26.1298 0.206115 25.6098 0.416115 25.2998 1.08611L21.2298 10.3061L24.1198 10.3061L24.6798 8.81611L28.2398 8.81611L28.5498 10.3061Z M27.7767 6.74713L27.1567 3.81713L26.9967 2.93713L26.5867 3.91713L25.5067 6.74713L27.7767 6.74713Z M4.12 7.10611L3.81 5.71611C3.3 4.12611 1.75 2.36611 0 1.49611L2.47 10.3061L5.36 10.3061L9.69 0.206115L6.8 0.206115L4.12 7.10611Z " /><path id="路径 7"  style="fill:#F2AE14" transform="translate(2.3187898089171974 7.1109554140127385)  rotate(0 3.3493630573248407 2.756783439490446)" opacity="1" d="M0.05 0L0 0.26C3.45 1.08 5.72 3.09 6.7 5.51L5.72 0.88C5.57 0.26 5.1 0.05 4.48 0L0.05 0Z " /></g></g></g><g opacity="1" transform="translate(48.54 0)  rotate(0 19.323248407643312 12.135)"><mask id="bg-mask-5" fill="white"><use xlink:href="#path_5"></use></mask><g mask="url(#bg-mask-5)" ><g opacity="1" transform="translate(0 0)  rotate(0 19.323248407643312 12.135)"><path id="路径 1"  style="fill:#F4F4F4" transform="translate(0 0)  rotate(0 19.323248407643312 12.135)" opacity="1" d="M2 24.27L36.65 24.27C37.75 24.27 38.65 23.37 38.65 22.27L38.65 2C38.65 0.9 37.75 0 36.65 0L2 0C0.9 0 0 0.9 0 2L0 22.27C0 23.37 0.9 24.27 2 24.27Z " /><path id="分组 2" fill-rule="evenodd" style="fill:#000000" transform="translate(7.780828025477707 19.11713375796178)  rotate(0 12.169891311762699 1.5292225219537814)" opacity="1" d="M23.961 2.67796C23.921 2.71796 23.891 2.77796 23.891 2.83796C23.891 2.89796 23.921 2.94796 23.961 2.98796C24.001 3.03796 24.061 3.05796 24.111 3.05796C24.171 3.05796 24.231 3.03796 24.271 2.98796C24.311 2.94796 24.341 2.89796 24.341 2.83796C24.341 2.77796 24.311 2.71796 24.271 2.67796L24.111 2.62796L23.961 2.67796Z M24.2708 2.82949C24.2708 2.74949 24.2008 2.67949 24.1108 2.67949C24.0308 2.67949 23.9608 2.74949 23.9608 2.82949C23.9608 2.91949 24.0308 2.98949 24.1108 2.98949C24.2008 2.98949 24.2708 2.91949 24.2708 2.82949Z M24.0624 2.94102L24.0624 2.88102L24.1124 2.94102L24.1624 2.94102L24.1124 2.88102L24.1624 2.83102L24.1624 2.78102L24.1124 2.73102L24.0124 2.73102L24.0124 2.94102L24.0624 2.94102Z M24.0639 2.78255L24.0639 2.83255L24.1639 2.83255L24.1139 2.78255L24.0639 2.78255Z M0.46 1.59293C0.46 1.59293 0.46 1.18293 1.03 1.18293C1.39 1.18293 1.44 1.59293 1.44 1.59293L1.44 2.93293L1.91 2.93293L1.91 1.59293C1.91 1.59293 1.96 1.18293 2.42 1.18293C2.89 1.18293 2.89 1.59293 2.89 1.59293L2.89 2.93293L3.35 2.93293L3.35 1.44293C3.35 1.44293 3.25 0.77293 2.52 0.77293C2.01 0.77293 1.8 1.13293 1.8 1.13293C1.8 1.13293 1.55 0.77293 1.08 0.77293C0.88 0.77293 0.46 1.08293 0.46 1.08293L0.46 0.82293L0 0.82293L0 2.93293L0.46 2.93293L0.46 1.59293Z M13.5498 1.59293C13.5498 1.59293 13.5998 1.18293 14.1198 1.18293L14.3298 1.23293L14.4798 0.82293L14.1698 0.77293C13.9598 0.77293 13.5498 1.08293 13.5498 1.08293L13.5498 0.82293L13.1398 0.82293L13.1398 2.93293L13.5998 2.93293L13.5498 1.59293Z M20.8678 0.82293L20.5578 0.77293C20.2978 0.77293 19.9378 1.08293 19.9378 1.08293L19.9378 0.82293L19.4778 0.82293L19.4778 2.93293L19.9378 2.93293L19.9378 1.59293C19.9378 1.59293 19.9378 1.18293 20.4578 1.18293L20.7178 1.23293L20.8678 0.82293Z M5.51159 1.08293C5.51159 1.08293 5.20159 0.77293 4.79159 0.77293C4.12159 0.77293 3.76159 1.34293 3.76159 1.85293C3.76159 2.37293 4.17159 2.99293 4.84159 2.99293C5.20159 2.99293 5.51159 2.73293 5.51159 2.73293L5.51159 2.93293L5.92159 2.93293L5.92159 0.82293L5.51159 0.82293L5.51159 1.08293Z M4.22535 1.90516C4.22535 2.26516 4.53535 2.57516 4.89535 2.57516C5.25535 2.57516 5.56535 2.26516 5.56535 1.90516C5.56535 1.49516 5.25535 1.18516 4.89535 1.18516C4.53535 1.18516 4.22535 1.49516 4.22535 1.90516Z M18.9153 2.93293L18.9153 0.82293L18.4453 0.82293L18.4453 1.08293C18.4453 1.08293 18.1353 0.77293 17.7253 0.77293C17.0553 0.77293 16.6953 1.34293 16.6953 1.85293C16.6953 2.37293 17.1053 2.99293 17.7753 2.99293C18.1353 2.99293 18.4453 2.73293 18.4453 2.73293L18.4453 2.93293L18.9153 2.93293Z M17.159 1.90516C17.159 2.26516 17.469 2.57516 17.829 2.57516C18.189 2.57516 18.499 2.26516 18.499 1.90516C18.499 1.49516 18.189 1.18516 17.829 1.18516C17.469 1.18516 17.159 1.49516 17.159 1.90516Z M23.1922 2.94L23.1922 0L22.7222 0L22.7222 1.08C22.7222 1.08 22.4122 0.77 22.0022 0.77C21.3322 0.77 20.9722 1.34 20.9722 1.86C20.9722 2.37 21.3822 2.99 22.0522 2.99C22.4122 2.99 22.7222 2.73 22.7222 2.73L22.7222 2.94L23.1922 2.94Z M21.4359 1.90516C21.4359 2.26516 21.7459 2.57516 22.1059 2.57516C22.4659 2.57516 22.7759 2.26516 22.7759 1.90516C22.7759 1.49516 22.4659 1.18516 22.1059 1.18516C21.7459 1.18516 21.4359 1.49516 21.4359 1.90516Z M7.99108 1.34293L8.24108 1.03293C8.24108 1.03293 7.68108 0.77293 7.37108 0.77293C6.90108 0.77293 6.49108 1.03293 6.49108 1.44293C6.49108 2.06293 7.26108 2.11293 7.26108 2.11293C7.26108 2.11293 7.83108 2.16293 7.83108 2.37293C7.78108 2.52293 7.47108 2.57293 7.32108 2.57293C7.01108 2.57293 6.59108 2.42293 6.59108 2.42293L6.44108 2.73293C6.44108 2.73293 6.85108 2.99293 7.32108 2.99293C7.73108 2.99293 8.24108 2.88293 8.24108 2.32293C8.24108 1.39293 6.96108 1.85293 6.96108 1.44293C6.96108 1.29293 7.16108 1.18293 7.37108 1.18293L7.99108 1.34293Z M10.2053 0.826115L9.48529 0.826115L9.48529 0.206115L9.01529 0.206115L9.01529 0.826115L8.60529 0.826115L8.60529 1.28611L9.01529 1.28611L9.01529 2.31611C9.01529 2.31611 8.96529 3.03611 9.73529 3.03611L10.3553 2.88611L10.2053 2.42611C10.2053 2.42611 9.99529 2.57611 9.84529 2.57611C9.48529 2.52611 9.48529 2.31611 9.48529 2.31611L9.48529 1.28611L10.2053 1.28611L10.2053 0.826115Z M10.6101 1.90293C10.6101 2.42293 10.9201 3.04293 11.7001 3.04293C12.0601 3.04293 12.5201 2.73293 12.5201 2.73293L12.3201 2.37293C12.3201 2.37293 12.0101 2.63293 11.7001 2.63293C11.1301 2.63293 11.0801 2.06293 11.0801 2.06293L12.6201 2.06293C12.6201 2.06293 12.7801 0.77293 11.7001 0.77293C10.9201 0.77293 10.5601 1.39293 10.6101 1.90293Z M11.0787 1.70516L12.2087 1.70516C12.2087 1.70516 12.2087 1.18516 11.6487 1.18516L11.5987 1.18516C11.0787 1.23516 11.0787 1.70516 11.0787 1.70516Z M14.5826 1.85293C14.5826 2.42293 14.9926 2.99293 15.7726 2.99293C16.1326 2.99293 16.4426 2.78293 16.4426 2.78293L16.2326 2.37293C16.2326 2.37293 15.9726 2.57293 15.7126 2.57293C15.3026 2.57293 15.0426 2.26293 15.0426 1.90293C15.0426 1.54293 15.3026 1.18293 15.7126 1.18293C16.1326 1.18293 16.2326 1.44293 16.2326 1.44293L16.4926 1.03293C16.4926 1.03293 16.1326 0.77293 15.7126 0.77293C15.2526 0.77293 14.5826 1.03293 14.5826 1.85293Z " /><path id="分组 3" fill-rule="evenodd" style="fill:#F79F1A" transform="translate(31.58707006369427 14.067324840764332)  rotate(0 0.309171974522293 0.1545859872611465)" opacity="1" d="M0.517643 0.05L0.517643 0.31L0.617643 0.31L0.617643 0L0.517643 0L0.407643 0.21L0.357643 0L0.257643 0L0.257643 0.31L0.307643 0.31L0.307643 0.05L0.407643 0.26L0.467643 0.26L0.517643 0.05Z M0.1 0.05L0.21 0.05L0.21 0L0 0L0 0.05L0.05 0.05L0.05 0.31L0.1 0.31L0.1 0.05Z " /><path id="路径 22"  style="fill:#F79F1A" transform="translate(16.28305732484076 2.1899681528662422)  rotate(0 7.961178343949045 7.961178343949045)" opacity="1" d="M7.96 0C3.57 0 0 3.57 0 7.96C0 12.36 3.57 15.92 7.96 15.92C12.36 15.92 15.92 12.36 15.92 7.96C15.92 3.57 12.36 0 7.96 0Z " /><path id="路径 23"  style="fill:#EA001B" transform="translate(6.44108280254777 2.1899681528662422)  rotate(0 7.961178343949045 7.961178343949045)" opacity="1" d="M7.96 0C3.57 0 0 3.57 0 7.96C0 12.36 3.57 15.92 7.96 15.92C12.36 15.92 15.92 12.36 15.92 7.96C15.92 3.57 12.36 0 7.96 0Z " /><path id="路径 24"  style="fill:#FF5F01" transform="translate(16.295588146211884 3.8646496815286624)  rotate(0 3.027660261431428 6.260732484076433)" opacity="1" d="M0 6.26C0 8.7 1.12 11.01 3.03 12.52C4.94 11.01 6.06 8.7 6.06 6.26C6.06 3.82 4.94 1.51 3.03 0C1.12 1.51 0 3.82 0 6.26Z " /></g></g></g></g></svg>